# xmcd
# 
# Track frame offsets:
#     183
#     12690
#     22960
#     34483
#     49215
#     64180
#     79258
#     92908
#     104743
#     119915
#     132443
#     140385
#     154885
#     168710
#     179448
#     192315
#     204530
#     216998
# 
# Disc length: 3067
# 
# Revision: 13
# Processed by: cddbd v1.5.2PL0 Copyright (c) Steve Scherf et al.
# Submitted via: fre:ac v1.0.31
# 
DISCID=200bf912
DTITLE=Johnny Cash - Ring of Fire
DYEAR=1995
DGENRE=Country
TTITLE0=Ring of Fire
TTITLE1=Thing Called Love
TTITLE2=I Walk the Line
TTITLE3=Long Black Veil
TTITLE4=Cat's in the Cradle
TTITLE5=Going by the Book
TTITLE6=As Long as I Live
TTITLE7=The Ways of a Woman in Love
TTITLE8=The Night Hank Williams Came
TTITLE9=Folsom Prison Blues
TTITLE10=Five Feet High and Rising
TTITLE11=Mystery of Life
TTITLE12=That's One You Owe Me
TTITLE13=Supper Time
TTITLE14=Family Bible
TTITLE15=The Big Light
TTITLE16=Sixteen Tons
TTITLE17=Peace in the Valley
EXTD=
EXTT0=
EXTT1=
EXTT2=
EXTT3=
EXTT4=
EXTT5=
EXTT6=
EXTT7=
EXTT8=
EXTT9=
EXTT10=
EXTT11=
EXTT12=
EXTT13=
EXTT14=
EXTT15=
EXTT16=
EXTT17=
PLAYORDER=
